<svg width="50" height="50" viewBox="0 0 50 50" fill="none" xmlns="http://www.w3.org/2000/svg">
<path fill-rule="evenodd" clip-rule="evenodd" d="M25 5C13.9551 5 5 13.9583 5 25C5 36.0481 13.9551 45 25 45C36.0449 45 45 36.0481 45 25C45 13.9583 36.0449 5 25 5ZM25 13.871C26.8706 13.871 28.3871 15.3874 28.3871 17.2581C28.3871 19.1287 26.8706 20.6452 25 20.6452C23.1294 20.6452 21.6129 19.1287 21.6129 17.2581C21.6129 15.3874 23.1294 13.871 25 13.871ZM29.5161 34.3548C29.5161 34.8893 29.0828 35.3226 28.5484 35.3226H21.4516C20.9172 35.3226 20.4839 34.8893 20.4839 34.3548V32.4194C20.4839 31.8849 20.9172 31.4516 21.4516 31.4516H22.4194V26.2903H21.4516C20.9172 26.2903 20.4839 25.857 20.4839 25.3226V23.3871C20.4839 22.8527 20.9172 22.4194 21.4516 22.4194H26.6129C27.1473 22.4194 27.5806 22.8527 27.5806 23.3871V31.4516H28.5484C29.0828 31.4516 29.5161 31.8849 29.5161 32.4194V34.3548Z" fill="url(#paint0_linear)"/>
<defs>
<linearGradient id="paint0_linear" x1="5" y1="5" x2="5" y2="45" gradientUnits="userSpaceOnUse">
<stop stop-color="#FD776C"/>
<stop offset="1" stop-color="#F9423A"/>
</linearGradient>
</defs>
</svg>
