<svg xmlns="http://www.w3.org/2000/svg" viewBox="0 0 47.97 47.97"><defs><style>.cls-1{fill:#fff;}</style></defs><g id="Layer_2" data-name="Layer 2"><g id="A11Y-ICON"><path class="cls-1" d="M24,0A24,24,0,1,0,48,24,24,24,0,0,0,24,0Z"/><path d="M24,3A21,21,0,1,0,45,24,21,21,0,0,0,24,3Zm-.06,40a19,19,0,1,1,19-19A19,19,0,0,1,23.93,43Z"/><path d="M23.65,13.61a2.47,2.47,0,1,0-2.46-2.47A2.47,2.47,0,0,0,23.65,13.61Z"/><path d="M34.21,14.1l-8.73.72H21.89l-8.2-.7a1.27,1.27,0,0,0-1.37,1.16,1.23,1.23,0,0,0,1.11,1.36l6.74.91V25L17.1,36.62a1.42,1.42,0,0,0,.86,1.8,1.38,1.38,0,0,0,1.8-.76l3.34-11h1.12l3.64,10.78a1.35,1.35,0,0,0,1.68,1,1.37,1.37,0,0,0,1-1.68L27,24.88V17.55l7.32-.92a1.27,1.27,0,0,0-.1-2.53Z"/></g></g></svg>