<svg width="34" height="60" viewBox="0 0 34 60" fill="none" xmlns="http://www.w3.org/2000/svg">
    <path
        d="M33.8462 27.1441V20.0051H32.3746V17.6207C32.3708 16.5344 32.0659 15.4692 31.4917 14.5367C30.9031 13.5515 29.8583 12.7233 29.2256 11.781C28.3391 10.4687 27.6874 9.02051 27.2979 7.49758C26.9006 5.85561 27.033 4.15653 26.6799 2.50027C26.5606 1.94538 26.2514 1.44593 25.8026 1.08305C25.3538 0.720166 24.7918 0.515168 24.2077 0.501352C21.5461 0.192618 18.8685 0.0305397 16.188 0.0158988C13.285 -0.0615549 10.3814 0.14413 7.52076 0.629854C7.12084 0.729725 6.75693 0.934396 6.46885 1.22148C6.18077 1.50856 5.97961 1.86698 5.88738 2.25755C5.72551 3.02856 5.59308 4.92754 5.44592 6.01267C5.2724 8.36469 4.29941 10.5943 2.67948 12.3521L2.00258 13.0803C1.37424 13.6697 0.873548 14.3749 0.52989 15.1546C0.186231 15.9343 0.00652661 16.7727 0.00132011 17.6207V42.3788C-0.017036 43.2384 0.156229 44.0917 0.509256 44.8802C0.862283 45.6688 1.38674 46.3741 2.04673 46.9478C2.98973 47.6543 3.77103 48.5433 4.341 49.5585C4.91098 50.5736 5.25718 51.6927 5.35763 52.8446C5.62251 54.5008 5.35763 56.1856 5.76966 57.7848C5.90113 58.19 6.14507 58.5523 6.47472 58.8318C6.80438 59.1114 7.20702 59.2975 7.63848 59.3696C10.4593 59.8567 13.324 60.0625 16.188 59.9836C19.0714 60.0618 21.9556 59.8561 24.7963 59.3696C25.2071 59.2791 25.5834 59.0786 25.8826 58.7908C26.1817 58.5031 26.3917 58.1397 26.4886 57.742C26.6504 56.9709 26.2679 53.2158 27.6511 50.9456C28.1367 50.146 30.2115 47.1334 30.2115 47.1334C30.2115 47.1334 30.4322 46.8193 30.4911 46.7622C31.6691 45.5856 32.3423 44.0188 32.3746 42.3788V27.1441H33.8462ZM30.9031 42.3788C30.9518 43.5734 30.5174 44.7392 29.6927 45.6274C28.8679 46.5157 27.7182 47.0561 26.4886 47.1334H5.88738C4.6578 47.0561 3.50801 46.5157 2.68329 45.6274C1.85857 44.7392 1.4242 43.5734 1.47283 42.3788V17.6207C1.4242 16.4261 1.85857 15.2603 2.68329 14.3721C3.50801 13.4838 4.6578 12.9434 5.88738 12.8661H26.4886C27.7182 12.9434 28.8679 13.4838 29.6927 14.3721C30.5174 15.2603 30.9518 16.4261 30.9031 17.6207V42.3788Z"
        fill="#434C5B"
    />
    <path
        fill-rule="evenodd"
        clip-rule="evenodd"
        d="M17.4289 41H12.8304C12.5987 40.9955 12.3851 40.8733 12.2624 40.6787L7.09143 32.1972C6.94148 31.9347 6.97783 31.6043 7.18685 31.3871L7.80937 30.7625C7.9048 30.6675 8.03203 30.6131 8.16834 30.6131H13.5075C13.7165 30.6131 13.8846 30.7806 13.8846 30.9888V32.8942C13.8846 33.1024 13.6938 33.2698 13.4848 33.2698H11.4036C11.1992 33.2653 11.0219 33.4237 11.0083 33.6274C11.0083 33.6998 11.0265 33.7722 11.0628 33.8356L13.6347 38.0763C13.7165 38.2166 13.871 38.3026 14.0346 38.3026H14.698C14.9116 38.3071 15.0888 38.1397 15.0979 37.9269C15.0979 37.9224 15.0979 37.9134 15.0979 37.9088V20.3756C15.0979 20.1675 15.266 20 15.475 20H20.3416C20.5733 20 20.7869 20.1312 20.8914 20.3394L26.0761 31.0295C26.1897 31.2603 26.1669 31.5364 26.0215 31.7446L25.0764 33.1567C24.9855 33.2834 24.8356 33.3603 24.6765 33.3649H19.3965C19.1874 33.3649 19.0193 33.1974 19.0193 32.9892V31.0657C19.0193 30.8575 19.1874 30.6901 19.3965 30.6901H22.3137C22.5182 30.6946 22.6954 30.5362 22.7135 30.3325C22.7135 30.2692 22.6999 30.2058 22.6772 30.1425L19.1874 22.9599C19.1011 22.7925 18.9239 22.6838 18.733 22.6748H18.3922C18.0605 22.6793 17.7879 22.9463 17.7879 23.2767V40.6198C17.8061 40.8325 17.6561 40.9819 17.4289 41Z"
        fill="#434C5B"
    />
</svg>