<svg width="20" height="36" viewBox="0 0 20 36" fill="none" xmlns="http://www.w3.org/2000/svg">
<path d="M20 16.2865V12.0031H19.1305V10.5724C19.1282 9.92067 18.948 9.28152 18.6087 8.72199C18.2609 8.13088 17.6436 7.634 17.2697 7.06859C16.7458 6.28121 16.3607 5.4123 16.1306 4.49855C15.8958 3.51337 15.9741 2.49392 15.7654 1.50016C15.6949 1.16723 15.5122 0.86756 15.247 0.64983C14.9818 0.4321 14.6497 0.309101 14.3046 0.300811C12.7318 0.115571 11.1496 0.0183238 9.56563 0.00953925C7.85023 -0.0369329 6.13444 0.0864779 4.44409 0.377913C4.20777 0.437835 3.99273 0.560638 3.8225 0.732886C3.65227 0.905133 3.5334 1.12019 3.47891 1.35453C3.38326 1.81714 3.305 2.95652 3.21805 3.6076C3.11551 5.01881 2.54056 6.35661 1.58333 7.41127L1.18334 7.84818C0.81205 8.20181 0.516188 8.62495 0.313117 9.09276C0.110046 9.56057 0.00385663 10.0636 0.000780067 10.5724V25.4273C-0.0100667 25.943 0.092317 26.455 0.300924 26.9281C0.509531 27.4013 0.819436 27.8245 1.20943 28.1687C1.76666 28.5926 2.22833 29.126 2.56514 29.7351C2.90194 30.3442 3.10652 31.0156 3.16587 31.7068C3.32239 32.7005 3.16587 33.7114 3.40934 34.6709C3.48703 34.914 3.63118 35.1314 3.82597 35.2991C4.02077 35.4668 4.25869 35.5785 4.51365 35.6218C6.18048 35.914 7.87329 36.0375 9.56563 35.9902C11.2695 36.0371 12.9738 35.9136 14.6524 35.6218C14.8951 35.5675 15.1175 35.4471 15.2943 35.2745C15.471 35.1019 15.5951 34.8838 15.6523 34.6452C15.748 34.1826 15.5219 31.9295 16.3393 30.5674C16.6262 30.0876 17.8523 28.28 17.8523 28.28C17.8523 28.28 17.9827 28.0916 18.0175 28.0573C18.7135 27.3514 19.1114 26.4113 19.1305 25.4273V16.2865H20ZM18.2609 25.4273C18.2897 26.1441 18.033 26.8435 17.5457 27.3765C17.0583 27.9094 16.3789 28.2337 15.6523 28.28H3.47891C2.75234 28.2337 2.07292 27.9094 1.58558 27.3765C1.09824 26.8435 0.84157 26.1441 0.870311 25.4273V10.5724C0.84157 9.85565 1.09824 9.15619 1.58558 8.62324C2.07292 8.09029 2.75234 7.76604 3.47891 7.71967H15.6523C16.3789 7.76604 17.0583 8.09029 17.5457 8.62324C18.033 9.15619 18.2897 9.85565 18.2609 10.5724V25.4273Z" fill="white"/>
</svg>
