<svg width="171" height="197" viewBox="0 0 171 197" fill="none" xmlns="http://www.w3.org/2000/svg">
<path fill-rule="evenodd" clip-rule="evenodd" d="M26.628 0C25.9941 0 25.4695 0.493145 25.4303 1.1259L17 137.375H110.5L102.07 1.12589C102.031 0.493139 101.506 0 100.872 0H26.628ZM39.3868 19.625C38.7493 19.625 38.223 20.1235 38.1885 20.7601L34.0685 96.8601C34.0313 97.5473 34.5785 98.125 35.2667 98.125H92.2333C92.9215 98.125 93.4687 97.5473 93.4315 96.8601L89.3115 20.7601C89.277 20.1235 88.7507 19.625 88.1132 19.625H39.3868Z" fill="black"/>
<path d="M17 157V137.375H34L25.5 157H17Z" fill="black"/>
<path d="M110.5 157V137.375H93.5L102 157H110.5Z" fill="black"/>
<rect x="85" y="73.8164" width="78.2895" height="91.7105" rx="5" fill="#EAF0F8"/>
<path d="M136.333 113.715L120.167 124.291L116.622 118.021C116.16 117.227 115.394 116.644 114.49 116.398C113.586 116.153 112.619 116.266 111.801 116.712C110.984 117.161 110.383 117.906 110.131 118.784C109.878 119.662 109.994 120.602 110.454 121.397L114.743 128.734C115.141 129.427 115.684 130.03 116.338 130.505C116.991 130.979 117.741 131.315 118.536 131.49C118.984 131.538 119.436 131.538 119.884 131.49C121.066 131.484 122.222 131.149 123.216 130.526L140.41 119.261C140.799 119.011 141.134 118.688 141.395 118.312C141.656 117.935 141.838 117.513 141.93 117.068C142.022 116.623 142.023 116.164 141.933 115.719C141.842 115.274 141.662 114.85 141.402 114.473C141.128 114.091 140.776 113.767 140.369 113.521C139.962 113.274 139.508 113.111 139.034 113.04C138.56 112.969 138.077 112.993 137.612 113.109C137.148 113.225 136.713 113.431 136.333 113.715Z" fill="black"/>
<path d="M170.237 111.1V92.4701H166.444V86.2475C166.434 83.4128 165.648 80.6328 164.168 78.1992C162.651 75.6282 159.958 73.4671 158.328 71.0079C156.043 67.5832 154.363 63.804 153.359 59.8297C152.335 55.5448 152.676 51.1107 151.766 46.7885C151.459 45.3404 150.662 44.037 149.505 43.0901C148.348 42.1431 146.9 41.6081 145.394 41.572C138.534 40.7663 131.633 40.3434 124.724 40.3052C117.241 40.103 109.757 40.6398 102.384 41.9074C101.354 42.168 100.416 42.7021 99.6731 43.4513C98.9306 44.2005 98.4122 45.1358 98.1744 46.1551C97.7572 48.1672 97.4159 53.1228 97.0366 55.9546C96.5894 62.0926 94.0815 67.9112 89.9062 72.4983L88.1616 74.3986C86.542 75.9368 85.2515 77.7772 84.3658 79.8119C83.48 81.8466 83.0168 84.0346 83.0034 86.2475V150.857C82.9561 153.101 83.4027 155.327 84.3126 157.385C85.2225 159.443 86.5742 161.284 88.2753 162.781C90.7059 164.625 92.7196 166.945 94.1887 169.594C95.6578 172.243 96.5501 175.163 96.809 178.17C97.4917 182.492 96.809 186.888 97.871 191.062C98.2099 192.119 98.8386 193.065 99.6883 193.794C100.538 194.524 101.576 195.009 102.688 195.198C109.958 196.469 117.342 197.006 124.724 196.8C132.156 197.004 139.59 196.467 146.911 195.198C147.97 194.961 148.94 194.438 149.711 193.687C150.482 192.936 151.023 191.988 151.273 190.95C151.69 188.938 150.704 179.138 154.269 173.214C155.521 171.127 160.869 163.265 160.869 163.265C160.869 163.265 161.438 162.446 161.589 162.296C164.626 159.226 166.361 155.137 166.444 150.857V111.1H170.237ZM162.651 150.857C162.777 153.975 161.657 157.017 159.531 159.335C157.406 161.653 154.442 163.064 151.273 163.265H98.1744C95.0053 163.064 92.0417 161.653 89.9161 159.335C87.7904 157.017 86.6708 153.975 86.7962 150.857V86.2475C86.6708 83.13 87.7904 80.0877 89.9161 77.7697C92.0417 75.4517 95.0053 74.0414 98.1744 73.8397H151.273C154.442 74.0414 157.406 75.4517 159.531 77.7697C161.657 80.0877 162.777 83.13 162.651 86.2475V150.857Z" fill="black"/>
</svg>
