<svg width="52" height="74" viewBox="0 0 52 74" fill="none" xmlns="http://www.w3.org/2000/svg">
<path d="M29.1131 4C29.1131 2.08004 27.5567 0.523605 25.6367 0.523605C23.7168 0.523605 22.1603 2.08004 22.1603 4L29.1131 4ZM23.1785 72.5097C24.5362 73.8673 26.7373 73.8673 28.0949 72.5097L50.2185 50.386C51.5762 49.0284 51.5762 46.8273 50.2185 45.4697C48.8609 44.1121 46.6598 44.1121 45.3022 45.4697L25.6367 65.1351L5.97126 45.4697C4.61364 44.1121 2.41251 44.1121 1.0549 45.4697C-0.302721 46.8273 -0.302721 49.0284 1.0549 50.386L23.1785 72.5097ZM22.1603 4L22.1603 70.0515L29.1131 70.0515L29.1131 4L22.1603 4Z" fill="white"/>
</svg>
