<svg width="50" height="50" viewBox="0 0 50 50" fill="none" xmlns="http://www.w3.org/2000/svg">
<path fill-rule="evenodd" clip-rule="evenodd" d="M8.125 13H4.375C3.33594 13 2.5 13.8359 2.5 14.875V23H0.625C0.28125 23 0 23.2812 0 23.625V27.375C0 27.7188 0.28125 28 0.625 28H2.5V36.125C2.5 37.1641 3.33594 38 4.375 38H8.125C9.16406 38 10 37.1641 10 36.125V14.875C10 13.8359 9.16406 13 8.125 13ZM49.375 23H47.5V14.875C47.5 13.8359 46.6641 13 45.625 13H41.875C40.8359 13 40 13.8359 40 14.875V36.125C40 37.1641 40.8359 38 41.875 38H45.625C46.6641 38 47.5 37.1641 47.5 36.125V28H49.375C49.7188 28 50 27.7188 50 27.375V23.625C50 23.2812 49.7188 23 49.375 23ZM36.125 8H32.375C31.3359 8 30.5 8.83594 30.5 9.875V23H20.5V9.875C20.5 8.83594 19.6641 8 18.625 8H14.875C13.8359 8 13 8.83594 13 9.875V41.125C13 42.1641 13.8359 43 14.875 43H18.625C19.6641 43 20.5 42.1641 20.5 41.125V28H30.5V41.125C30.5 42.1641 31.3359 43 32.375 43H36.125C37.1641 43 38 42.1641 38 41.125V9.875C38 8.83594 37.1641 8 36.125 8Z" fill="url(#paint0_linear)"/>
<defs>
<linearGradient id="paint0_linear" x1="0" y1="8" x2="0" y2="43" gradientUnits="userSpaceOnUse">
<stop stop-color="#FD776C"/>
<stop offset="1" stop-color="#F9423A"/>
</linearGradient>
</defs>
</svg>
