<svg
   width="64"
   height="60"
   viewBox="0 0 64 60"
   fill="none"
   version="1.1"
   id="svg19">
  <path
     d="M1.68852 47.4995C0.077692 44.7095 1.03363 41.1419 3.82367 39.531L54.3418 10.3644C57.1319 8.75354 60.6995 9.70948 62.3103 12.4995C63.9211 15.2896 62.9652 18.8572 60.1752 20.468L9.657 49.6347C6.86696 51.2455 3.29935 50.2896 1.68852 47.4995Z"
     fill="#434C5B"
     id="path152" />
  <path
     d="M3.04215 26.5107C1.43132 23.7207 2.38726 20.1531 5.1773 18.5423C7.96734 16.9314 11.535 17.8874 13.1458 20.6774L30.6458 50.9883C32.2566 53.7783 31.3007 57.3459 28.5106 58.9568C25.7206 60.5676 22.153 59.6117 20.5422 56.8216L3.04215 26.5107Z"
     fill="#434C5B"
     id="path149" />
  <path
     d="m 43.3317,3.17741 c 2.79,-1.61083 6.3576,-0.6549 7.9685,2.13514 L 62.9668,25.5198 c 1.6109,2.7901 0.6549,6.3577 -2.1351,7.9685 z"
     fill="#434c5b"
     id="path146" />
  <path
     d="m 3.16715,26.5107 c -2.790038,1.6109 -3.745976,5.1785 -2.135146,7.9685 L 12.6987,54.6865 c 1.6108,2.79 5.1784,3.746 7.9685,2.1351 z"
     fill="#434c5b"
     id="path143" />
  <path
     d="M33.353 9.01074C31.7422 6.2207 32.6982 2.65309 35.4882 1.04226C38.2782 -0.568572 41.8458 0.387366 43.4567 3.17741L60.9567 33.4883C62.5675 36.2783 61.6116 39.8459 58.8215 41.4568C56.0315 43.0676 52.4639 42.1117 50.853 39.3216L33.353 9.01074Z"
     fill="#434C5B"
     id="path140" />
</svg>
