<svg width="45" height="49" viewBox="0 0 45 49" fill="none" xmlns="http://www.w3.org/2000/svg">
<path fill-rule="evenodd" clip-rule="evenodd" d="M3 1.75C3 1.19772 3.44772 0.75 4 0.75H18C18.5523 0.75 19 1.19772 19 1.75V10.75H21C21.5523 10.75 22 11.1977 22 11.75V20.6441C22 20.7145 21.9926 20.7847 21.9778 20.8536L19.1694 33.9595C19.0706 34.4206 18.6631 34.75 18.1916 34.75H15V38.75H12.7366C13.636 42.4794 16.9945 45.25 21 45.25C25.6944 45.25 29.5 41.4444 29.5 36.75V30.75V28.75C29.5 24.6079 32.8579 21.25 37 21.25C41.1421 21.25 44.5 24.6079 44.5 28.75V46.75H41.5V28.75C41.5 26.2647 39.4853 24.25 37 24.25C34.5147 24.25 32.5 26.2647 32.5 28.75V30.75V36.75C32.5 43.1013 27.3513 48.25 21 48.25C15.3309 48.25 10.6199 44.1479 9.6733 38.75H7V34.75H3.80842C3.33688 34.75 2.92941 34.4206 2.83061 33.9595L0.0221976 20.8536C0.00744049 20.7847 0 20.7145 0 20.6441V11.75C0 11.1977 0.447716 10.75 1 10.75H3V1.75ZM6 24.25C6 23.9739 6.22386 23.75 6.5 23.75H15.5C15.7761 23.75 16 23.9739 16 24.25C16 24.5261 15.7761 24.75 15.5 24.75H6.5C6.22386 24.75 6 24.5261 6 24.25ZM4.5 20.75C4.22386 20.75 4 20.9739 4 21.25C4 21.5261 4.22386 21.75 4.5 21.75H17.5C17.7761 21.75 18 21.5261 18 21.25C18 20.9739 17.7761 20.75 17.5 20.75H4.5Z" fill="url(#paint0_linear)"/>
<defs>
<linearGradient id="paint0_linear" x1="2.94679" y1="0.749999" x2="47.4052" y2="45.3542" gradientUnits="userSpaceOnUse">
<stop stop-color="#FD776C"/>
<stop offset="1" stop-color="#F9423A"/>
</linearGradient>
</defs>
</svg>
