<svg width="40" height="41" viewBox="0 0 40 41" fill="none" xmlns="http://www.w3.org/2000/svg">
<rect y="0.5" width="40" height="40" rx="20" fill="#9EA2BD"/>
<path d="M21.5651 27.852C21.5651 28.028 21.5011 28.18 21.3731 28.308C21.2451 28.436 21.0931 28.5 20.9171 28.5H19.0931C18.9171 28.5 18.7651 28.436 18.6371 28.308C18.5091 28.18 18.4451 28.028 18.4451 27.852V16.668C18.4451 16.492 18.5091 16.34 18.6371 16.212C18.7651 16.084 18.9171 16.02 19.0931 16.02H20.9171C21.0931 16.02 21.2451 16.084 21.3731 16.212C21.5011 16.34 21.5651 16.492 21.5651 16.668V27.852ZM21.0371 11.46C21.2131 11.46 21.3651 11.524 21.4931 11.652C21.6211 11.78 21.6851 11.932 21.6851 12.108V13.98C21.6851 14.156 21.6211 14.308 21.4931 14.436C21.3651 14.564 21.2131 14.628 21.0371 14.628H18.9731C18.7971 14.628 18.6451 14.564 18.5171 14.436C18.3891 14.308 18.3251 14.156 18.3251 13.98V12.108C18.3251 11.932 18.3891 11.78 18.5171 11.652C18.6451 11.524 18.7971 11.46 18.9731 11.46H21.0371Z" fill="white"/>
</svg>
