<svg width="50" height="50" viewBox="0 0 50 50" fill="none" xmlns="http://www.w3.org/2000/svg">
<path fill-rule="evenodd" clip-rule="evenodd" d="M32.437 13.125C32.437 9.18991 29.3311 6 25.4996 6C21.6682 6 18.5623 9.18991 18.5623 13.125C18.5623 17.06 21.6682 20.25 25.4996 20.25C29.3311 20.25 32.437 17.06 32.437 13.125ZM23.8802 23.8941C19.5928 21.1985 12.6482 20.4578 9.15347 20.2537C7.97918 20.1854 7 21.1042 7 22.2643V38.8001C7 39.8637 7.83754 40.7506 8.91428 40.8078C12.0693 40.9777 18.4524 41.6004 22.8642 43.8826C23.5413 44.2329 24.3441 43.7557 24.3441 43.0017V24.7446C24.3434 24.398 24.1765 24.0804 23.8802 23.8941ZM41.8458 20.2537C38.3518 20.457 31.4065 21.1985 27.1198 23.8941C26.8235 24.0804 26.6566 24.4107 26.6566 24.7573V42.9994C26.6566 43.7557 27.4616 44.2337 28.1409 43.8826C32.5519 41.6026 38.9314 40.9799 42.0857 40.81C43.1625 40.7521 44 39.8652 44 38.8016V22.2643C43.9993 21.1042 43.0201 20.1854 41.8458 20.2537Z" fill="url(#paint0_linear)"/>
<defs>
<linearGradient id="paint0_linear" x1="7" y1="6" x2="7" y2="44" gradientUnits="userSpaceOnUse">
<stop stop-color="#FD776C"/>
<stop offset="1" stop-color="#F9423A"/>
</linearGradient>
</defs>
</svg>
