<svg width="49" height="48" viewBox="0 0 49 48" fill="none" xmlns="http://www.w3.org/2000/svg">
<path d="M10.1533 20.7733C13.9933 28.32 20.18 34.48 27.7267 38.3467L33.5933 32.48C34.3133 31.76 35.38 31.52 36.3133 31.84C39.3 32.8267 42.5267 33.36 45.8333 33.36C47.3 33.36 48.5 34.56 48.5 36.0267V45.3333C48.5 46.8 47.3 48 45.8333 48C20.7933 48 0.5 27.7067 0.5 2.66667C0.5 1.2 1.7 0 3.16667 0H12.5C13.9667 0 15.1667 1.2 15.1667 2.66667C15.1667 6 15.7 9.2 16.6867 12.1867C16.98 13.12 16.7667 14.16 16.02 14.9067L10.1533 20.7733Z" fill="black"/>
</svg>
