<?xml version="1.0" encoding="UTF-8" standalone="no"?>
<!DOCTYPE svg PUBLIC "-//W3C//DTD SVG 1.1//EN" "http://www.w3.org/Graphics/SVG/1.1/DTD/svg11.dtd">
<svg version="1.1" xmlns="http://www.w3.org/2000/svg" xmlns:xlink="http://www.w3.org/1999/xlink" preserveAspectRatio="xMidYMid meet" viewBox="0 0 50 50" width="50" height="50"><defs><path d="M26.83 6.22L27.07 6.26L27.3 6.31L27.53 6.37L27.75 6.45L27.96 6.54L28.17 6.63L28.38 6.75L28.57 6.87L28.76 7L28.94 7.14L29.11 7.3L29.27 7.46L29.42 7.63L29.57 7.81L29.7 8L29.82 8.19L29.93 8.4L30.03 8.6L30.12 8.82L30.2 9.04L30.26 9.27L30.31 9.5L30.34 9.74L30.37 9.98L30.37 10.22L30.37 11.04L30.38 11.15L30.38 11.25L30.39 11.36L30.41 11.46L30.42 11.57L30.45 11.67L30.47 11.77L30.5 11.87L30.54 11.97L30.57 12.06L30.61 12.16L30.66 12.25L30.71 12.34L30.76 12.43L30.81 12.52L30.87 12.6L30.93 12.68L31 12.76L31.06 12.84L31.13 12.92L31.21 12.99L31.29 13.06L31.37 13.13L31.45 13.19L31.54 13.25L31.63 13.31L31.72 13.37L31.81 13.42L31.91 13.47L32 13.51L32.1 13.55L32.2 13.59L32.3 13.62L32.4 13.65L32.5 13.67L32.6 13.69L32.7 13.71L32.8 13.72L32.91 13.73L33.01 13.73L33.11 13.73L33.21 13.73L33.32 13.72L33.42 13.71L33.52 13.69L33.62 13.67L33.72 13.65L33.82 13.62L33.92 13.59L34.02 13.55L34.12 13.51L34.21 13.47L34.31 13.42L34.4 13.37L35.11 12.96L35.33 12.84L35.55 12.74L35.77 12.65L36 12.58L36.22 12.52L36.45 12.48L36.68 12.44L36.91 12.43L37.15 12.42L37.38 12.43L37.6 12.45L37.83 12.48L38.06 12.53L38.28 12.59L38.5 12.66L38.71 12.75L38.92 12.84L39.12 12.95L39.32 13.07L39.51 13.2L39.69 13.34L39.87 13.5L40.04 13.66L40.2 13.84L40.35 14.03L40.49 14.23L40.62 14.43L41.96 16.76L42.08 16.98L42.18 17.2L42.27 17.42L42.34 17.65L42.4 17.88L42.44 18.1L42.48 18.34L42.49 18.57L42.5 18.8L42.49 19.03L42.47 19.26L42.44 19.48L42.39 19.71L42.33 19.93L42.26 20.15L42.18 20.36L42.08 20.57L41.97 20.77L41.85 20.97L41.72 21.16L41.58 21.34L41.42 21.52L41.26 21.69L41.08 21.85L40.89 22L40.69 22.14L40.48 22.27L39.78 22.67L39.69 22.73L39.6 22.79L39.51 22.85L39.43 22.91L39.35 22.98L39.27 23.05L39.19 23.12L39.12 23.2L39.06 23.28L38.99 23.36L38.93 23.44L38.87 23.52L38.82 23.61L38.77 23.7L38.72 23.79L38.67 23.88L38.63 23.98L38.6 24.07L38.56 24.17L38.53 24.27L38.51 24.37L38.48 24.47L38.47 24.58L38.45 24.68L38.44 24.79L38.44 24.89L38.43 25L38.44 25.11L38.44 25.21L38.45 25.32L38.47 25.42L38.48 25.53L38.51 25.63L38.53 25.73L38.56 25.83L38.6 25.93L38.63 26.02L38.67 26.12L38.72 26.21L38.77 26.3L38.82 26.39L38.87 26.48L38.93 26.56L38.99 26.64L39.06 26.72L39.12 26.8L39.19 26.88L39.27 26.95L39.35 27.02L39.43 27.09L39.51 27.15L39.6 27.21L39.69 27.27L39.78 27.33L40.48 27.73L40.69 27.86L40.89 28L41.08 28.15L41.26 28.31L41.42 28.48L41.58 28.66L41.72 28.84L41.85 29.03L41.97 29.23L42.08 29.43L42.18 29.64L42.26 29.85L42.33 30.07L42.39 30.29L42.44 30.52L42.47 30.74L42.49 30.97L42.5 31.2L42.49 31.43L42.48 31.66L42.44 31.9L42.4 32.12L42.34 32.35L42.27 32.58L42.18 32.8L42.08 33.02L41.96 33.24L40.62 35.57L40.49 35.77L40.35 35.97L40.2 36.16L40.04 36.34L39.87 36.5L39.69 36.66L39.51 36.8L39.32 36.93L39.12 37.05L38.92 37.16L38.71 37.25L38.5 37.34L38.28 37.41L38.06 37.47L37.83 37.52L37.6 37.55L37.38 37.57L37.15 37.58L36.91 37.57L36.68 37.56L36.45 37.52L36.22 37.48L36 37.42L35.77 37.35L35.55 37.26L35.33 37.16L35.11 37.04L34.4 36.63L34.31 36.58L34.21 36.53L34.12 36.49L34.02 36.45L33.92 36.41L33.82 36.38L33.72 36.35L33.62 36.33L33.52 36.31L33.42 36.29L33.32 36.28L33.21 36.27L33.11 36.27L33.01 36.27L32.91 36.27L32.8 36.28L32.7 36.29L32.6 36.31L32.5 36.33L32.4 36.35L32.3 36.38L32.2 36.41L32.1 36.45L32 36.49L31.91 36.53L31.81 36.58L31.72 36.63L31.63 36.69L31.54 36.75L31.45 36.81L31.37 36.87L31.29 36.94L31.21 37.01L31.13 37.08L31.06 37.16L31 37.24L30.93 37.32L30.87 37.4L30.81 37.48L30.76 37.57L30.71 37.66L30.66 37.75L30.61 37.84L30.57 37.94L30.54 38.03L30.5 38.13L30.47 38.23L30.45 38.33L30.42 38.43L30.41 38.53L30.39 38.64L30.38 38.74L30.38 38.85L30.37 38.96L30.37 39.78L30.37 40.02L30.34 40.26L30.31 40.5L30.26 40.73L30.2 40.96L30.12 41.18L30.03 41.4L29.93 41.6L29.82 41.81L29.7 42L29.57 42.19L29.42 42.37L29.27 42.54L29.11 42.7L28.94 42.86L28.76 43L28.57 43.13L28.38 43.25L28.17 43.37L27.96 43.46L27.75 43.55L27.53 43.63L27.3 43.69L27.07 43.74L26.83 43.78L26.59 43.8L26.34 43.81L23.66 43.81L23.41 43.8L23.17 43.78L22.93 43.74L22.7 43.69L22.47 43.63L22.25 43.55L22.04 43.46L21.83 43.37L21.63 43.25L21.43 43.13L21.24 43L21.06 42.86L20.89 42.7L20.73 42.54L20.58 42.37L20.43 42.19L20.3 42L20.18 41.81L20.07 41.6L19.97 41.4L19.88 41.18L19.8 40.96L19.74 40.73L19.69 40.5L19.66 40.26L19.63 40.02L19.63 39.78L19.63 38.96L19.63 38.85L19.62 38.75L19.61 38.64L19.59 38.54L19.58 38.43L19.55 38.33L19.53 38.23L19.5 38.13L19.47 38.03L19.43 37.94L19.39 37.84L19.34 37.75L19.3 37.66L19.24 37.57L19.19 37.48L19.13 37.4L19.07 37.32L19.01 37.24L18.94 37.16L18.87 37.08L18.79 37.01L18.72 36.94L18.63 36.87L18.55 36.81L18.47 36.75L18.38 36.69L18.28 36.63L18.19 36.58L18.09 36.53L18 36.49L17.9 36.45L17.8 36.41L17.7 36.38L17.6 36.35L17.5 36.33L17.4 36.31L17.3 36.29L17.2 36.28L17.09 36.27L16.99 36.27L16.89 36.27L16.79 36.27L16.68 36.28L16.58 36.29L16.48 36.31L16.38 36.33L16.28 36.35L16.18 36.38L16.08 36.41L15.98 36.45L15.88 36.49L15.79 36.53L15.69 36.58L15.6 36.63L14.89 37.04L14.68 37.16L14.46 37.26L14.23 37.35L14.01 37.42L13.78 37.48L13.55 37.52L13.32 37.56L13.09 37.57L12.86 37.58L12.63 37.57L12.4 37.55L12.17 37.52L11.95 37.47L11.72 37.41L11.51 37.34L11.29 37.25L11.08 37.16L10.88 37.05L10.68 36.93L10.49 36.8L10.31 36.66L10.13 36.5L9.96 36.34L9.8 36.16L9.65 35.97L9.51 35.77L9.39 35.57L8.04 33.24L7.93 33.02L7.82 32.8L7.74 32.58L7.66 32.35L7.6 32.12L7.56 31.9L7.53 31.66L7.51 31.43L7.5 31.2L7.51 30.97L7.53 30.74L7.56 30.52L7.61 30.29L7.67 30.07L7.74 29.85L7.83 29.64L7.92 29.43L8.03 29.23L8.15 29.03L8.28 28.84L8.43 28.66L8.58 28.48L8.75 28.31L8.92 28.15L9.11 28L9.31 27.86L9.52 27.73L10.22 27.33L10.32 27.27L10.41 27.21L10.49 27.15L10.58 27.09L10.66 27.02L10.73 26.95L10.81 26.88L10.88 26.8L10.95 26.72L11.01 26.64L11.07 26.56L11.13 26.48L11.19 26.39L11.24 26.3L11.28 26.21L11.33 26.12L11.37 26.02L11.41 25.93L11.44 25.83L11.47 25.73L11.49 25.63L11.52 25.53L11.53 25.42L11.55 25.32L11.56 25.21L11.57 25.11L11.57 25L11.57 24.89L11.56 24.79L11.55 24.68L11.53 24.58L11.52 24.47L11.49 24.37L11.47 24.27L11.44 24.17L11.41 24.07L11.37 23.98L11.33 23.88L11.28 23.79L11.24 23.7L11.19 23.61L11.13 23.52L11.07 23.44L11.01 23.36L10.95 23.28L10.88 23.2L10.81 23.12L10.73 23.05L10.66 22.98L10.58 22.91L10.49 22.85L10.41 22.79L10.32 22.73L10.22 22.67L9.52 22.27L9.31 22.14L9.11 22L8.92 21.85L8.74 21.69L8.58 21.52L8.42 21.34L8.28 21.16L8.15 20.97L8.03 20.77L7.92 20.57L7.82 20.36L7.74 20.15L7.67 19.93L7.61 19.71L7.56 19.48L7.53 19.26L7.51 19.03L7.5 18.8L7.51 18.57L7.52 18.34L7.56 18.1L7.6 17.88L7.66 17.65L7.73 17.42L7.82 17.2L7.92 16.98L8.04 16.76L9.38 14.43L9.51 14.23L9.65 14.03L9.8 13.84L9.96 13.66L10.13 13.5L10.31 13.34L10.49 13.2L10.68 13.07L10.88 12.95L11.08 12.84L11.29 12.75L11.51 12.66L11.72 12.59L11.94 12.53L12.17 12.48L12.4 12.45L12.63 12.43L12.86 12.42L13.09 12.43L13.32 12.44L13.55 12.48L13.78 12.52L14.01 12.58L14.23 12.65L14.46 12.74L14.67 12.84L14.89 12.96L15.6 13.37L15.69 13.42L15.79 13.47L15.88 13.51L15.98 13.55L16.08 13.59L16.18 13.62L16.28 13.65L16.38 13.67L16.48 13.69L16.58 13.71L16.68 13.72L16.79 13.73L16.89 13.73L16.99 13.73L17.09 13.73L17.2 13.72L17.3 13.71L17.4 13.69L17.5 13.67L17.6 13.65L17.7 13.62L17.8 13.59L17.9 13.55L18 13.51L18.09 13.47L18.19 13.42L18.28 13.37L18.38 13.31L18.47 13.25L18.55 13.19L18.63 13.13L18.72 13.06L18.79 12.99L18.87 12.92L18.94 12.84L19.01 12.76L19.07 12.68L19.13 12.6L19.19 12.52L19.24 12.43L19.3 12.34L19.34 12.25L19.39 12.16L19.43 12.06L19.47 11.97L19.5 11.87L19.53 11.77L19.55 11.67L19.58 11.57L19.59 11.47L19.61 11.36L19.62 11.26L19.63 11.15L19.63 11.04L19.63 10.22L19.63 9.98L19.66 9.74L19.69 9.5L19.74 9.27L19.8 9.04L19.88 8.82L19.97 8.6L20.07 8.4L20.18 8.19L20.3 8L20.43 7.81L20.58 7.63L20.73 7.46L20.89 7.3L21.06 7.14L21.24 7L21.43 6.87L21.63 6.75L21.83 6.63L22.04 6.54L22.25 6.45L22.47 6.37L22.7 6.31L22.93 6.26L23.17 6.22L23.41 6.2L23.66 6.2L26.34 6.2L26.59 6.2L26.83 6.22ZM22.39 18.81L21.25 19.43L20.25 20.25L19.43 21.25L18.81 22.39L18.42 23.65L18.28 25L18.42 26.35L18.81 27.61L19.43 28.75L20.25 29.75L21.25 30.57L22.39 31.19L23.65 31.58L25 31.72L26.35 31.58L27.61 31.19L28.75 30.57L29.75 29.75L30.57 28.75L31.19 27.61L31.58 26.35L31.72 25L31.58 23.65L31.19 22.39L30.57 21.25L29.75 20.25L28.75 19.43L27.61 18.81L26.35 18.42L25 18.28L23.65 18.42L22.39 18.81Z" id="b4su5QvwkI"></path></defs><g><g><g><use xlink:href="#b4su5QvwkI" opacity="1" fill="#3d4679" fill-opacity="1"></use><g><use xlink:href="#b4su5QvwkI" opacity="1" fill-opacity="0" stroke="#000000" stroke-width="1" stroke-opacity="0"></use></g></g></g></g></svg>