<svg width="50" height="50" viewBox="0 0 50 50" fill="none" xmlns="http://www.w3.org/2000/svg">
<path fill-rule="evenodd" clip-rule="evenodd" d="M2.6228 26.504L17.6235 41.3765C18.9629 42.7045 21.2844 41.7749 21.2844 39.8716V31.373H33.4279C34.6155 31.373 35.5709 30.4258 35.5709 29.2484V20.7498C35.5709 19.5724 34.6155 18.6251 33.4279 18.6251H21.2844V10.1265C21.2844 8.23205 18.9718 7.29367 17.6235 8.62157L2.6228 23.4941C1.7924 24.3263 1.7924 25.6719 2.6228 26.504ZM29.8563 40.9339V37.3928C29.8563 36.8086 30.3385 36.3305 30.9278 36.3305H38.4281C40.0086 36.3305 41.2854 35.0646 41.2854 33.4976V16.5005C41.2854 14.9335 40.0086 13.6676 38.4281 13.6676H30.9278C30.3385 13.6676 29.8563 13.1896 29.8563 12.6053V9.06421C29.8563 8.47993 30.3385 8.00188 30.9278 8.00188H38.4281C43.1605 8.00188 47 11.8085 47 16.5005V33.4976C47 38.1896 43.1605 41.9962 38.4281 41.9962H30.9278C30.3385 41.9962 29.8563 41.5182 29.8563 40.9339Z" fill="url(#paint0_linear)"/>
<defs>
<linearGradient id="paint0_linear" x1="47" y1="8" x2="47" y2="42" gradientUnits="userSpaceOnUse">
<stop stop-color="#FD776C"/>
<stop offset="1" stop-color="#F9423A"/>
</linearGradient>
</defs>
</svg>
