<svg width="100%" height="100%" fill="white" viewBox="0 0 217 47" xmlns="http://www.w3.org/2000/svg">
<path fill-rule="evenodd" clip-rule="evenodd" d="M23.2318 47L12.9838 47C12.468 46.9901 11.992 46.7204 11.7183 46.2828L0.204884 27.2975C-0.132791 26.7124 -0.0467813 25.9749 0.416465 25.4833L1.80743 24.0905C2.02055 23.8779 2.30823 23.7568 2.60921 23.7532L14.5013 23.7532C14.9667 23.7543 15.344 24.1313 15.3456 24.597L15.3456 28.8584C15.3456 29.3223 14.9234 29.7022 14.4598 29.7022L9.82018 29.7022C9.36066 29.6952 8.97411 30.0452 8.93538 30.5034C8.93166 30.6671 8.97563 30.8283 9.06193 30.9673L14.7969 40.4605C14.9817 40.7744 15.3186 40.967 15.6827 40.967H17.1587C17.3953 40.9728 17.624 40.8812 17.7914 40.7138C17.9588 40.5463 18.0503 40.3175 18.0445 40.0807L18.0445 0.843778C18.0459 0.378377 18.4227 0.00145295 18.8878 7.072e-06L29.726 7.072e-06C30.2453 -0.00166494 30.7201 0.293263 30.9489 0.759705L42.5049 24.6811C42.7608 25.1981 42.7122 25.8141 42.3783 26.2845L40.2696 29.4489C40.0655 29.7364 39.7362 29.9089 39.3838 29.9129L27.6173 29.9129C27.1521 29.9114 26.7754 29.5345 26.774 29.0691V24.7652C26.7754 24.2997 27.1521 23.9228 27.6173 23.9214L34.1125 23.9214C34.5721 23.9281 34.9587 23.5783 34.9983 23.1202C34.9948 22.9758 34.966 22.8332 34.9133 22.6988L27.1536 6.62356C26.9563 6.24405 26.5687 6.00162 26.1413 5.99048H25.382C24.639 5.99594 24.038 6.59728 24.0325 7.34072L24.0325 46.1562C24.0751 46.6201 23.738 46.9575 23.2318 47ZM61.6073 13.9214L54.0583 13.9214C53.5479 13.9171 53.1352 13.5042 53.1309 12.9935V8.9428C53.1259 8.6952 53.2219 8.45624 53.397 8.28113C53.572 8.10601 53.8108 8.00989 54.0583 8.01496L75.6091 8.01496C76.1195 8.0192 76.5322 8.43213 76.5365 8.9428V12.9935C76.5414 13.2411 76.4452 13.4799 76.2702 13.655C76.0953 13.8301 75.8566 13.9263 75.6091 13.9214L68.0601 13.9214V41.5987C68.0406 42.1032 67.636 42.5076 67.1317 42.5265L62.5357 42.5265C62.0314 42.5076 61.6268 42.1032 61.6073 41.5987L61.6073 13.9214ZM81.7239 8.94282C81.7189 8.69506 81.8151 8.45597 81.9904 8.28084C82.1656 8.1057 82.4046 8.00968 82.6523 8.01498L102.726 8.01498C103.237 8.01877 103.65 8.43181 103.654 8.94282V12.9935C103.659 13.2412 103.563 13.4802 103.388 13.6553C103.213 13.8304 102.974 13.9265 102.726 13.9214L88.1341 13.9214V22.0218L100.323 22.0218C100.827 22.0408 101.231 22.4453 101.25 22.9496V27.0429C101.246 27.5535 100.833 27.9665 100.323 27.9707L88.1341 27.9707V36.6201H102.726C103.237 36.6239 103.65 37.037 103.654 37.548V41.5987C103.659 41.8464 103.563 42.0854 103.388 42.2605C103.213 42.4356 102.974 42.5317 102.726 42.5265H82.6523C82.1415 42.5227 81.7283 42.1097 81.7239 41.5987V8.94282ZM114.326 8.22831C114.372 7.77952 114.761 7.44555 115.211 7.46862H116.013C116.366 7.46973 116.69 7.66416 116.856 7.97508L127.695 31.2644H127.864L138.702 7.97508C138.871 7.68032 139.082 7.46862 139.545 7.46862H140.347C140.895 7.46862 141.19 7.80592 141.232 8.22831L147.052 41.3896C147.221 42.0653 146.799 42.5292 146.166 42.5292H141.697C141.252 42.5117 140.873 42.2017 140.768 41.7695L137.859 23.0789H137.69L129.044 42.4866C128.96 42.7824 128.665 43.0357 128.201 43.0357H127.315C126.851 43.0357 126.641 42.7824 126.472 42.4866L117.742 23.0789H117.573L114.705 41.7695C114.664 42.1068 114.242 42.5292 113.819 42.5292L109.391 42.5292C108.759 42.5292 108.338 42.0653 108.464 41.3896L114.326 8.22831ZM153.8 8.9428C153.795 8.6952 153.891 8.45624 154.066 8.28113C154.241 8.10601 154.48 8.00989 154.727 8.01496L166.325 8.01496C172.398 8.01496 177.375 12.951 177.375 18.9425C177.375 25.0595 172.398 30.0381 166.367 30.0381L160.21 30.0381V41.6402C160.191 42.1449 159.786 42.5496 159.282 42.5691H154.727C154.217 42.5644 153.804 42.1511 153.8 41.6402V8.9428ZM165.944 24.007C167.304 24.0073 168.609 23.4637 169.567 22.497C170.526 21.5304 171.058 20.2207 171.047 18.8592C171.047 16.1598 168.728 14.0924 165.944 14.0924H160.209V24.007L165.944 24.007ZM198.249 7.5116C208.117 7.5116 216.003 15.4429 216.003 25.3159C216.003 35.1889 208.117 43.0361 198.249 43.0361C188.38 43.0361 180.536 35.1879 180.536 25.3159C180.536 15.4439 188.38 7.5116 198.249 7.5116ZM198.247 36.6207C204.447 36.6207 209.592 31.5155 209.592 25.3133C209.592 19.1112 204.447 13.9219 198.247 13.9219C192.048 13.9219 186.945 19.1112 186.945 25.3133C186.945 31.5155 192.048 36.6207 198.247 36.6207Z" />
</svg>
