<svg width="50" height="50" viewBox="0 0 50 50" fill="none" xmlns="http://www.w3.org/2000/svg">
<path fill-rule="evenodd" clip-rule="evenodd" d="M25.5 20C31.0234 20 35.5 15.5234 35.5 10C35.5 4.47656 31.0234 0 25.5 0C19.9766 0 15.5 4.47656 15.5 10C15.5 15.5234 19.9766 20 25.5 20ZM32.5 22.5H31.1953C29.4609 23.2969 27.5312 23.75 25.5 23.75C23.4688 23.75 21.5469 23.2969 19.8047 22.5H18.5C12.7031 22.5 8 27.2031 8 33V36.25C8 38.3203 9.67969 40 11.75 40H39.25C41.3203 40 43 38.3203 43 36.25V33C43 27.2031 38.2969 22.5 32.5 22.5Z" fill="url(#paint0_linear)"/>
<defs>
<linearGradient id="paint0_linear" x1="8" y1="0" x2="8" y2="40" gradientUnits="userSpaceOnUse">
<stop stop-color="#FD776C"/>
<stop offset="1" stop-color="#F9423A"/>
</linearGradient>
</defs>
</svg>
