<svg xmlns="http://www.w3.org/2000/svg" width="54" height="54" viewBox="0 0 54 54">
    <g fill="none" fill-rule="evenodd" transform="translate(1 1)">
        <circle cx="26" cy="26" r="26" fill-rule="nonzero" stroke="#979797" stroke-width="1.982"/>
        <path fill="#FFF" d="M21.957 31.714h-.001l-4.242-2.778a1.077 1.077 0 0 0-.594-.176h-.895a1.069 1.069 0 0 1-1.075-1.063V23.63c0-.586.482-1.062 1.075-1.062h.895c.212 0 .419-.062.596-.179l4.241-2.79v12.115zm1.58-15.036a1.085 1.085 0 0 0-1.103.053l-5.64 3.713h-.57c-1.778 0-3.224 1.428-3.224 3.186v4.067c0 1.757 1.446 3.186 3.225 3.186h.572l5.64 3.693a1.086 1.086 0 0 0 1.102.05c.349-.184.566-.543.566-.935V17.615c0-.393-.217-.753-.567-.937z"/>
        <path fill="#FFF" fill-rule="nonzero" d="M31.986 31.406a.417.417 0 0 1-.306-.126.417.417 0 0 1-.126-.306v-3.51h-3.438a.417.417 0 0 1-.306-.126.417.417 0 0 1-.126-.306v-.972c0-.12.042-.222.126-.306a.417.417 0 0 1 .306-.126h3.438v-3.402a.41.41 0 0 1 .126-.315.433.433 0 0 1 .306-.117h1.08c.132 0 .237.039.315.117a.426.426 0 0 1 .117.315v3.402h3.438c.12 0 .222.042.306.126a.417.417 0 0 1 .126.306v.972c0 .12-.039.222-.117.306a.41.41 0 0 1-.315.126h-3.438v3.51c0 .12-.039.222-.117.306a.41.41 0 0 1-.315.126h-1.08z"/>
    </g>
</svg>
