<svg xmlns="http://www.w3.org/2000/svg" width="54" height="54" viewBox="0 0 54 54">
    <g fill="none" fill-rule="evenodd" transform="translate(1 1)">
        <path fill="#FFF" d="M25.848 32.779l-4.665-3.055a1.185 1.185 0 0 0-.653-.194h-.984a1.175 1.175 0 0 1-1.181-1.169V23.89c0-.645.529-1.168 1.18-1.168h.985c.233 0 .461-.068.656-.197l4.663-3.069v13.323h-.001zm1.74-16.534a1.193 1.193 0 0 0-1.214.058l-6.202 4.084h-.626c-1.956 0-3.546 1.57-3.546 3.503v4.471c0 1.932 1.59 3.504 3.546 3.504h.629l6.202 4.06a1.194 1.194 0 0 0 1.212.055 1.16 1.16 0 0 0 .622-1.027V17.275c0-.431-.239-.827-.623-1.03z"/>
        <circle cx="26" cy="26" r="26" fill-rule="nonzero" stroke="#979797" stroke-width="1.982"/>
        <path fill="#FFF" fill-rule="nonzero" d="M33.548 27.644a.417.417 0 0 1-.306-.126.417.417 0 0 1-.126-.306v-1.224c0-.12.042-.222.126-.306a.417.417 0 0 1 .306-.126h5.544c.132 0 .237.039.315.117a.426.426 0 0 1 .117.315v1.224c0 .12-.042.222-.126.306a.417.417 0 0 1-.306.126h-5.544z"/>
    </g>
</svg>
