<svg width="24" height="18" viewBox="0 0 24 18" fill="none" xmlns="http://www.w3.org/2000/svg">
<path d="M11.52 0L21.4966 17.28H1.54339L11.52 0Z" fill="#F9423A"/>
<path d="M10.6149 5.89917L10.661 11.9241H12.3544L12.4005 5.89917H10.6149ZM10.7301 14.8617C10.9375 15.0691 11.1909 15.1613 11.5135 15.1613C11.8245 15.1613 12.0779 15.0691 12.2853 14.8617C12.4927 14.6544 12.5963 14.4009 12.5963 14.0899C12.5963 13.7904 12.4927 13.5369 12.2853 13.3296C12.0779 13.1222 11.8245 13.0185 11.5135 13.0185C11.1909 13.0185 10.9375 13.1222 10.7301 13.3296C10.5227 13.5369 10.4191 13.7904 10.4191 14.0899C10.4191 14.4009 10.5227 14.6544 10.7301 14.8617Z" fill="white"/>
</svg>
