<svg width="50" height="50" viewBox="0 0 50 50" fill="none" xmlns="http://www.w3.org/2000/svg">
<path fill-rule="evenodd" clip-rule="evenodd" d="M15.4917 19.9669C17.6548 19.9669 19.4083 18.2134 19.4083 16.0503C19.4083 15.3368 19.2176 14.6679 18.8843 14.0918H47.2167C47.6493 14.0918 48 14.4425 48 14.8751V19.3085C48 19.7411 47.6493 20.0918 47.2167 20.0918H2.78333C2.35071 20.0918 2 19.7411 2 19.3085V14.8751C2 14.4425 2.35071 14.0918 2.78333 14.0918H12.0991C11.7658 14.6679 11.575 15.3368 11.575 16.0503C11.575 18.2134 13.3286 19.9669 15.4917 19.9669Z" fill="url(#paint0_linear)"/>
<path fill-rule="evenodd" clip-rule="evenodd" d="M33.5083 37.2419C31.3452 37.2419 29.5917 35.4884 29.5917 33.3253C29.5917 32.6119 29.7824 31.943 30.1156 31.3669H2.78333C2.35071 31.3669 2 31.7177 2 32.1503V36.5836C2 37.0162 2.35071 37.3669 2.78333 37.3669H47.2167C47.6493 37.3669 48 37.0162 48 36.5836V32.1503C48 31.7177 47.6493 31.3669 47.2167 31.3669H36.901C37.2343 31.943 37.425 32.6119 37.425 33.3253C37.425 35.4884 35.6714 37.2419 33.5083 37.2419Z" fill="url(#paint1_linear)"/>
<path d="M23.7167 16.246C23.7167 20.6804 20.1219 24.2751 15.6875 24.2751C11.2531 24.2751 7.65833 20.6804 7.65833 16.246C7.65833 11.8116 11.2531 8.2168 15.6875 8.2168C20.1219 8.2168 23.7167 11.8116 23.7167 16.246ZM12.2555 16.246C12.2555 18.1414 13.7921 19.6779 15.6875 19.6779C17.5829 19.6779 19.1195 18.1414 19.1195 16.246C19.1195 14.3505 17.5829 12.814 15.6875 12.814C13.7921 12.814 12.2555 14.3505 12.2555 16.246Z" fill="url(#paint2_linear)"/>
<path d="M42.125 33.4628C42.125 37.8971 38.5302 41.4919 34.0958 41.4919C29.6614 41.4919 26.0667 37.8971 26.0667 33.4628C26.0667 29.0284 29.6614 25.4336 34.0958 25.4336C38.5302 25.4336 42.125 29.0284 42.125 33.4628ZM30.6638 33.4628C30.6638 35.3582 32.2004 36.8947 34.0958 36.8947C35.9913 36.8947 37.5278 35.3582 37.5278 33.4628C37.5278 31.5673 35.9913 30.0308 34.0958 30.0308C32.2004 30.0308 30.6638 31.5673 30.6638 33.4628Z" fill="url(#paint3_linear)"/>
<defs>
<linearGradient id="paint0_linear" x1="1" y1="14.0918" x2="1" y2="18.0085" gradientUnits="userSpaceOnUse">
<stop stop-color="#FD776C"/>
<stop offset="1" stop-color="#F9423A"/>
</linearGradient>
<linearGradient id="paint1_linear" x1="48" y1="31.3669" x2="48" y2="35.2836" gradientUnits="userSpaceOnUse">
<stop stop-color="#FD776C"/>
<stop offset="1" stop-color="#F9423A"/>
</linearGradient>
<linearGradient id="paint2_linear" x1="7.65833" y1="8.2168" x2="7.65833" y2="24.2751" gradientUnits="userSpaceOnUse">
<stop stop-color="#FD776C"/>
<stop offset="1" stop-color="#F9423A"/>
</linearGradient>
<linearGradient id="paint3_linear" x1="26.0667" y1="25.4336" x2="26.0667" y2="41.4919" gradientUnits="userSpaceOnUse">
<stop stop-color="#FD776C"/>
<stop offset="1" stop-color="#F9423A"/>
</linearGradient>
</defs>
</svg>
